Coordinates
version=1
nRows=24
nColumns=38
inDegrees=no

Units are S.I. units (second, meters, Newtons, ...)
If the header above contains a line with 'inDegrees', this indicates whether rotational values are in degrees (yes) or radians (no).

endheader
time	pelvis_tilt	pelvis_list	pelvis_rotation	pelvis_tx	pelvis_ty	pelvis_tz	hip_flexion_r	hip_adduction_r	hip_rotation_r	knee_angle_r	ankle_angle_r	subtalar_angle_r	mtp_angle_r	hip_flexion_l	hip_adduction_l	hip_rotation_l	knee_angle_l	ankle_angle_l	subtalar_angle_l	mtp_angle_l	lumbar_extension	lumbar_bending	lumbar_rotation	arm_flex_r	arm_add_r	arm_rot_r	elbow_flex_r	pro_sup_r	wrist_flex_r	wrist_dev_r	arm_flex_l	arm_add_l	arm_rot_l	elbow_flex_l	pro_sup_l	wrist_flex_l	wrist_dev_l
30	2.08159	1.54822	-0.373369	0.623551	0.386874	1.06673	0.0837271	-0.0753212	-0.204652	0.290808	-0.309694	0	0	-0.016162	-0.182588	-0.270217	0.166407	-0.302973	0	0	-0.23371	-0.0100859	0.0992342	0.599452	-0.689147	0.590395	1.19539	0.480602	0	0	0.548177	-0.380213	0.289778	1.15555	0.823663	0	0
30.01	1.98076	1.5492	-0.273173	0.623632	0.386555	1.06639	0.0888317	-0.0762453	-0.204065	0.294811	-0.308662	0	0	-0.0122073	-0.182846	-0.270689	0.168669	-0.302157	0	0	-0.23393	-0.0106641	0.0996698	0.599495	-0.68845	0.588955	1.19503	0.481628	0	0	0.54891	-0.380197	0.289861	1.15517	0.824081	0	0
30.02	1.86431	1.55006	-0.157466	0.623715	0.386192	1.06603	0.0944761	-0.0774029	-0.203539	0.299392	-0.307492	0	0	-0.00810867	-0.182857	-0.271035	0.170808	-0.301234	0	0	-0.234151	-0.0114614	0.100105	0.600188	-0.687767	0.58871	1.19417	0.483033	0	0	0.54974	-0.380185	0.289879	1.1547	0.824551	0	0
30.03	1.64804	1.55051	0.0574184	0.624054	0.385764	1.0654	0.103175	-0.0781416	-0.201483	0.305915	-0.303805	0	0	-0.00145725	-0.183399	-0.27191	0.174455	-0.298475	0	0	-0.232794	-0.0125774	0.10095	0.600046	-0.685926	0.58631	1.19304	0.487203	0	0	0.550161	-0.380609	0.28932	1.15488	0.825821	0	0
30.04	1.68164	1.5497	0.0244065	0.623789	0.385447	1.06556	0.10397	-0.0782094	-0.204832	0.308331	-0.304234	0	0	-0.00121498	-0.184199	-0.271728	0.175386	-0.298166	0	0	-0.237539	-0.0116536	0.100259	0.601453	-0.685733	0.585823	1.19248	0.488554	0	0	0.551192	-0.379919	0.288512	1.15484	0.826786	0	0
30.05	1.6672	1.54877	0.038922	0.623709	0.385042	1.06558	0.106383	-0.0778934	-0.206429	0.311345	-0.304513	0	0	0.000257303	-0.185287	-0.271592	0.176667	-0.297663	0	0	-0.241559	-0.0110898	0.100187	0.602745	-0.685482	0.585469	1.19194	0.490353	0	0	0.552515	-0.379284	0.287772	1.15481	0.827665	0	0
30.06	1.64226	1.54789	0.064001	0.623632	0.384589	1.06554	0.109063	-0.0776	-0.207892	0.31411	-0.304711	0	0	0.00229304	-0.186336	-0.271481	0.178324	-0.297019	0	0	-0.245637	-0.0105806	0.10005	0.603908	-0.685059	0.584075	1.19129	0.491205	0	0	0.553886	-0.378524	0.286878	1.15479	0.828528	0	0
30.07	1.60277	1.54704	0.1036	0.623591	0.384097	1.06544	0.112427	-0.0773708	-0.208901	0.317271	-0.304712	0	0	0.00506956	-0.187515	-0.271466	0.180585	-0.29625	0	0	-0.249595	-0.0103008	0.0998725	0.605083	-0.684407	0.582634	1.19051	0.492497	0	0	0.555256	-0.377753	0.285763	1.1548	0.829087	0	0
30.08	1.54969	1.54618	0.156725	0.623578	0.38354	1.06526	0.116696	-0.0773993	-0.209081	0.32113	-0.304555	0	0	0.00858208	-0.188715	-0.271547	0.183311	-0.295394	0	0	-0.253555	-0.0102179	0.0996345	0.606197	-0.683551	0.581103	1.18995	0.494531	0	0	0.556805	-0.377149	0.284727	1.15483	0.829817	0	0
30.09	1.48609	1.54521	0.220354	0.623598	0.382892	1.06503	0.121685	-0.0774616	-0.208693	0.325455	-0.304235	0	0	0.0128894	-0.190012	-0.27154	0.186605	-0.294311	0	0	-0.257624	-0.0101698	0.0993008	0.607461	-0.682632	0.579732	1.1896	0.497632	0	0	0.558486	-0.376574	0.283537	1.15482	0.830708	0	0
30.1	1.41419	1.54395	0.292296	0.623658	0.382168	1.06475	0.127311	-0.0774352	-0.208097	0.330091	-0.303765	0	0	0.0179691	-0.191502	-0.271522	0.190487	-0.292757	0	0	-0.261884	-0.0101822	0.0988619	0.609194	-0.681823	0.578539	1.18922	0.501775	0	0	0.560135	-0.375957	0.281834	1.15518	0.832137	0	0
30.11	1.33657	1.54247	0.36992	0.623762	0.381377	1.0644	0.133593	-0.0774509	-0.207224	0.335067	-0.303109	0	0	0.023853	-0.193143	-0.2718	0.195188	-0.290807	0	0	-0.266301	-0.0101755	0.098358	0.610718	-0.680681	0.575861	1.18896	0.504736	0	0	0.56174	-0.375433	0.279805	1.15579	0.833631	0	0
30.12	1.24651	1.54092	0.459834	0.623903	0.38051	1.06396	0.140905	-0.0778693	-0.20625	0.340737	-0.302286	0	0	0.0305971	-0.194511	-0.272462	0.200338	-0.289171	0	0	-0.270601	-0.0106704	0.0976874	0.612322	-0.679169	0.573098	1.18868	0.508415	0	0	0.563407	-0.37516	0.277557	1.15659	0.834977	0	0
30.13	1.15186	1.53913	0.554357	0.624086	0.379564	1.06346	0.149083	-0.0784912	-0.205177	0.347091	-0.301351	0	0	0.0380056	-0.195763	-0.273144	0.205664	-0.287965	0	0	-0.27478	-0.0115371	0.0968399	0.61423	-0.677449	0.571108	1.18818	0.51322	0	0	0.565135	-0.375005	0.275206	1.15742	0.836226	0	0
30.14	1.06588	1.53693	0.64041	0.624304	0.378561	1.06294	0.157692	-0.0789744	-0.203685	0.353925	-0.300527	0	0	0.0459571	-0.197317	-0.274054	0.211464	-0.286888	0	0	-0.279131	-0.0125099	0.0957467	0.616449	-0.675592	0.569941	1.18747	0.518288	0	0	0.566962	-0.375062	0.273007	1.15847	0.837653	0	0
30.15	0.993301	1.53451	0.713222	0.624537	0.377476	1.06237	0.166013	-0.0792626	-0.201677	0.360064	-0.300296	0	0	0.054224	-0.199213	-0.275265	0.217829	-0.285729	0	0	-0.284075	-0.0133662	0.0943709	0.61889	-0.673371	0.567951	1.18652	0.522142	0	0	0.568896	-0.375326	0.270759	1.15988	0.838874	0	0
30.16	0.994021	1.53373	0.714264	0.624366	0.37654	1.06222	0.169302	-0.0798559	-0.204526	0.363559	-0.300835	0	0	0.0588188	-0.200888	-0.275836	0.223022	-0.284489	0	0	-0.292529	-0.0132799	0.0916234	0.621376	-0.671274	0.565185	1.18547	0.525759	0	0	0.570857	-0.375104	0.268078	1.16129	0.8399	0	0
30.17	0.988594	1.53285	0.721229	0.624269	0.375573	1.06202	0.172777	-0.0804592	-0.207122	0.366696	-0.30128	0	0	0.0635279	-0.202324	-0.275702	0.227753	-0.283382	0	0	-0.301107	-0.0134858	0.0890085	0.623778	-0.66906	0.562622	1.18456	0.530321	0	0	0.572875	-0.374995	0.26522	1.16274	0.841192	0	0
30.18	0.973635	1.5316	0.737544	0.62425	0.374582	1.06173	0.177292	-0.0810653	-0.209533	0.370686	-0.301447	0	0	0.0691538	-0.203941	-0.275507	0.233072	-0.282107	0	0	-0.309435	-0.0137419	0.0864608	0.626056	-0.666502	0.559476	1.18349	0.534733	0	0	0.574751	-0.375172	0.262488	1.16436	0.842717	0	0
30.19	0.948806	1.52983	0.76359	0.624277	0.373542	1.06132	0.183059	-0.0816571	-0.211577	0.375529	-0.301346	0	0	0.0759231	-0.20582	-0.275468	0.239265	-0.280432	0	0	-0.317225	-0.0141201	0.084006	0.628586	-0.663897	0.557249	1.1821	0.54034	0	0	0.57649	-0.375368	0.259673	1.16596	0.844843	0	0
30.2	0.915762	1.52765	0.797714	0.624346	0.372433	1.0608	0.190101	-0.0824236	-0.213294	0.381272	-0.301002	0	0	0.0837198	-0.207874	-0.275283	0.246144	-0.278516	0	0	-0.324749	-0.0148083	0.0815824	0.63135	-0.661299	0.55581	1.18051	0.546583	0	0	0.57831	-0.375533	0.256614	1.16765	0.846958	0	0
30.21	0.883105	1.5252	0.831313	0.624455	0.371274	1.06022	0.198182	-0.0833311	-0.215354	0.388427	-0.300361	0	0	0.0918915	-0.209991	-0.274489	0.253054	-0.276361	0	0	-0.332521	-0.0154418	0.0791966	0.63412	-0.658621	0.553802	1.17893	0.551801	0	0	0.580203	-0.375824	0.253363	1.16949	0.849146	0	0
30.22	0.853434	1.52267	0.861856	0.624593	0.370059	1.05961	0.207243	-0.0846071	-0.217834	0.397324	-0.299546	0	0	0.100498	-0.212191	-0.273237	0.260702	-0.273787	0	0	-0.340673	-0.0161018	0.0768771	0.636952	-0.656008	0.551897	1.17764	0.55607	0	0	0.582182	-0.376108	0.250241	1.17153	0.851905	0	0
30.23	0.821941	1.51971	0.894164	0.624768	0.368754	1.05889	0.217067	-0.0857392	-0.219377	0.406447	-0.298509	0	0	0.11045	-0.214854	-0.273025	0.270134	-0.270876	0	0	-0.348773	-0.016633	0.0746067	0.639693	-0.653074	0.54871	1.17657	0.558317	0	0	0.58424	-0.376211	0.246929	1.17354	0.855334	0	0
